<svg width="512" height="512" xmlns="http://www.w3.org/2000/svg">

 <g>
  <title>background</title>
  <rect fill="none" id="canvas_background" height="512" width="512" y="-1" x="-1"/>
 </g>
 <g>
  <title>Layer 1</title>
  <path fill="#d9667b" id="svg_1" d="m272.563,375.769l0,136.231l134.557,0c11.202,0 20.283,-9.081 20.283,-20.283l0,-115.948l-154.84,0z"/>
  <path fill="#d9667b" id="svg_2" d="m84.597,375.77l0,115.95c0,11.202 9.081,20.283 20.283,20.283l134.56,0l0,-136.23l-154.84,0l-0.003,-0.003z"/>
  <path fill="#d9667b" id="svg_3" d="m437.97,125.01l-61.862,0c0.358,-0.334 0.709,-0.67 1.046,-1.007c28.319,-28.318 28.319,-74.396 0,-102.72c-28.386,-28.386 -74.328,-28.388 -102.72,0c-7.108,7.108 -13.312,18.679 -18.738,35.005c-5.426,-16.326 -11.63,-27.897 -18.738,-35.005c-28.386,-28.386 -74.328,-28.388 -102.72,0c-28.319,28.319 -28.319,74.397 0,102.72c0.338,0.338 0.689,0.673 1.046,1.007l-61.27,0c-11.202,0 -20.283,9.081 -20.283,20.283l0,41.707c0,11.202 9.081,20.283 20.283,20.283l10.569,0l0,135.36l154.84,0l0,-135.36l33.125,0l0,135.36l154.84,0l0,-135.36l10.569,0c11.202,0 20.283,-9.081 20.283,-20.283l0,-41.707c0.001,-11.202 -9.08,-20.283 -20.282,-20.283l0.012,0zm-280.3,-24.43c-15.403,-15.403 -15.403,-40.466 0,-55.869c15.44,-15.439 40.428,-15.44 55.869,0c9.774,9.774 18.569,47.564 23.333,79.208c-31.63,-4.756 -69.409,-13.546 -79.202,-23.339zm196.06,0c-9.774,9.774 -47.564,18.569 -79.208,23.333c4.757,-31.631 13.547,-69.41 23.339,-79.203c15.44,-15.439 40.428,-15.44 55.869,0c15.403,15.404 15.403,40.467 0,55.87z"/>
 </g>
</svg>