<svg width="510" height="510" xmlns="http://www.w3.org/2000/svg">

 <g>
  <title>background</title>
  <rect fill="none" id="canvas_background" height="512" width="512" y="-1" x="-1"/>
 </g>
 <g>
  <title>Layer 1</title>
  <rect fill-opacity="0" fill="#000000" height="510" width="510" y="0" x="-2" id="ee-background"/>
  <g id="svg_1" transform="matrix(1,0,0,1,-400.3345947265625,-426.6339416503906) ">
   <path fill="#d9667b" id="svg_2" d="m753,556.3c-9.2,0 -16.3,2.6 -22.2,6.8c-5.9,0 -12.3,-1.1 -19.1,3.6c-20.1,13.9 -22.9,31.7 -17.1,36.8c1.7,1.5 4.3,1.6 7.4,0.8c-12.7,21.9 -29.5,42.9 -69.7,42.9c-45,0 -66.5,0.4 -79.5,16.9c-13.6,-1.7 -43.4,-23.9 -53.4,-52.3c-1.5,-4.2 -4.7,-2.8 -4,2.2c1,7 16.9,51.3 49.9,63.7c-7.7,22.7 9.4,44.3 5.4,63.6c-3.7,18.1 -10.1,49.3 -6.4,55.5c3.7,6.2 27,6.2 27,-1.5c0,-7.7 -13.4,-6.9 -13.4,-6.9c-2.4,-8.9 6.5,-35.4 19.7,-43.8c-3.3,16.8 -6.6,37 -3.8,41.8c3.5,6 26.1,6 26.1,-1.4c0,-7.4 -13,-6.7 -13,-6.7c-2.4,-8.8 7.4,-36 18.2,-46.6c9.2,-9 14.6,-18.9 17,-26.2c15.9,-1.6 31.5,14.1 50.8,14.1c-2.9,21 5.9,69.2 10.4,76.7c4.5,7.5 30.1,5.7 30.1,-1.9c0,-7.6 -14.2,-7.7 -14.2,-7.7s-2,-11.6 -3.1,-28.7c-0.3,-4.2 -0.2,-8.7 0.4,-13.4c3.8,15.4 2.3,31.5 5.4,37.7c4.4,8.7 27.6,5.7 27.6,-0.8s-14.9,-8.3 -14.9,-8.3c-3.6,-17.1 3.3,-72.4 13.9,-84.4l0,0c21.4,-27.9 28.9,-66.5 28.9,-66.5c21.8,12.2 49.2,13.4 58.8,-12.9c-14.5,-14.6 -39.6,-53.1 -63.2,-53.1zm3.4,34.7c-3.5,0 -6.3,-2.8 -6.3,-6.3c0,-3.5 2.8,-6.3 6.3,-6.3c3.5,0 6.3,2.8 6.3,6.3c0.1,3.5 -2.8,6.3 -6.3,6.3zm51.8,26.9c-1.6,-3 -2.4,-6.4 -2.4,-9.8c0,-1.7 0.2,-3.4 0.6,-5.1c2.1,2.4 4.2,4.9 6.2,6.9c-1.1,2.9 -2.6,5.6 -4.4,8z"/>
  </g>
  <g id="svg_3" transform="matrix(1,0,0,1,-400.3345947265625,-426.6339416503906) ">
   <path id="svg_4" fill="#d9667b" d="m901,677.8c0,-135.5 -109.8,-245.3 -245.3,-245.3c-135.5,0 -245.3,109.8 -245.3,245.3s109.8,245.3 245.3,245.3c135.5,0 245.3,-109.8 245.3,-245.3zm-402.4,-128.2l285.4,285.3c-35,28.6 -79.6,45.7 -128.3,45.7c-112,0 -202.8,-90.8 -202.8,-202.8c0,-48.6 17.1,-93.3 45.7,-128.2zm359.9,128.2c0,48.9 -17.3,93.8 -46.2,128.9l-285.5,-285.5c35,-28.9 79.9,-46.2 128.9,-46.2c112,0 202.8,90.8 202.8,202.8z" class="st0"/>
  </g>
 </g>
</svg>