<svg height='100px' width='100px'  fill="#d9667b" xmlns="http://www.w3.org/2000/svg" xmlns:xlink="http://www.w3.org/1999/xlink" version="1.0" x="0px" y="0px" viewBox="0 0 123 123" enable-background="new 0 0 123 123" xml:space="preserve"><path fill-rule="evenodd" clip-rule="evenodd" d="M56.3,9.6l1.4,20.2l0.6-20.3c5.3,1.1,12-2.9,10.4-9.2c1.8-0.4,3.4-0.3,5.2,0  c-1,2.1-0.9,3.4-0.2,5.5c0.6,3.8,1.5,5.7,3.9,8.8c1.2,3.3,0,7.6-1.8,10.5c-1.7,2.9-2.3,5.9-2.7,8.1c-0.2,0.9,0,4,0.3,6  c9.7,5.4,36.3,53.2,43.6,62.9c-7.2,8.8-3.3,12.5-17.4,13.5c-13.9,1-21.9,11.3-34.7,5.7c-3.5-1.5-7.1-3.1-13-1.5  c-5.2,1.9-12.3,3-18.2,2.6c-12.1-0.8-9.1-6.4-19.5-11.4c-3.9-1.9-7.7-3.7-8.4-8.5c6.8-22.6,18.4-48.3,37.4-63.2  c-0.1-2-0.7-4.4-0.9-5.4c-0.5-2.2-1.2-5.2-3-8c-1.9-2.8-3.2-7.1-2.2-10.4c2.2-3.2,3.1-5,3.6-8.9c0.6-2.2,0.7-3.8-0.4-5.9  c1.8-0.3,3.4-0.5,5.2-0.2C44.2,6.7,51.1,10.9,56.3,9.6z"></path></svg>