<svg width="600" height="976" xmlns="http://www.w3.org/2000/svg">

 <g>
  <title>background</title>
  <rect fill="none" id="canvas_background" height="512" width="512" y="-1" x="-1"/>
 </g>
 <g>
  <title>Layer 1</title>
  <g id="layer1">
   <g id="svg_1">
    <g id="svg_2" fill="rgb(0,0,0)">
     <path fill="#d9667b" id="svg_3" d="m432.44165,304.61304c-0.94528,0.16089 -1.72967,0.32176 -1.7699,0.36206c-0.04022,0.02008 0.64359,0.1206 1.48831,0.18097c4.22367,0.34193 8.24619,2.27276 10.1569,4.88739c1.97104,2.67492 2.79564,5.49072 2.79564,9.49316c0,6.17456 -2.45373,13.55591 -7.09975,21.21881c-1.32743,2.19232 -3.78115,5.8327 -3.88175,5.73212c-0.04022,-0.04028 -0.1609,-1.87048 -0.28155,-4.08289c-0.72405,-12.55029 -1.62912,-22.68701 -2.45375,-27.37329c-1.247,-7.03943 -3.27837,-8.99035 -6.43605,-6.15442c-1.48831,1.3274 -1.74979,1.60901 -3.9823,4.56555c-1.89057,2.53418 -3.21802,4.44483 -8.60819,12.36927c-6.65728,9.81493 -13.33468,18.72485 -18.82544,25.08043c-0.88495,1.02577 -1.66934,1.8705 -1.72967,1.8705c-0.06035,0 -0.38215,-0.68384 -0.68385,-1.50843c-0.58324,-1.52857 -1.40786,-2.51417 -2.17214,-2.51417c-0.52296,0 -1.91071,1.28724 -2.47388,2.29286c-0.26144,0.46264 -1.81012,3.3186 -3.43924,6.35559c-6.09414,11.30335 -6.07404,11.2832 -7.40144,12.61065c-0.66374,0.68378 -1.247,1.22687 -1.28722,1.18665c-0.02011,-0.02008 0.44248,-1.24701 1.04584,-2.71521c2.87613,-6.95898 4.32422,-13.33464 4.32422,-18.98634c-0.02011,-5.85277 -1.18664,-14.84306 -2.69507,-20.79643c-1.70959,-6.67737 -3.96219,-8.84961 -5.83267,-5.6316c-0.2816,0.46265 -2.31296,5.00806 -4.50522,10.09656c-13.33468,30.77234 -17.55832,39.17945 -25.88495,51.58893c-6.47629,9.65404 -8.20596,11.82624 -16.00967,20.11261c-14.03861,14.94373 -21.58084,23.5318 -26.02573,29.70636c-5.28963,7.34113 -7.13998,10.31781 -10.43847,16.83429c-3.8415,7.64282 -7.6428,18.0209 -11.50443,31.5567c-1.32743,4.64603 -1.83023,6.03381 -2.11183,5.85278c-0.08043,-0.04022 -0.8246,-1.32745 -1.609,-2.85598c-3.6605,-6.93888 -7.502,-12.95255 -10.29766,-16.15045c-6.29526,-7.20029 -14.56156,-9.61387 -23.91391,-6.99917c-5.34998,1.4883 -9.3725,3.8817 -14.03861,8.3668c-3.45938,3.2985 -5.37008,6.07405 -6.55673,9.49317c-0.40225,1.14643 -0.74417,1.58893 -3.25824,4.22367c-1.52856,1.60901 -3.47949,3.4996 -4.30411,4.18344l-1.48834,1.22687l-0.62347,-0.48273c-0.34193,-0.26144 -1.08609,-0.78436 -1.66936,-1.1665c-3.84151,-2.53422 -7.78359,-7.07966 -10.03621,-11.54468c-1.30731,-2.61464 -2.65486,-6.99918 -2.63475,-8.64844l0.02011,-0.54303l0.44249,0.60339c2.21237,2.99677 6.05389,3.78119 10.80048,2.15204c3.72082,-1.2671 6.49636,-3.05713 8.86966,-5.71197c3.6605,-4.08289 6.1947,-7.74335 8.38696,-12.12793c1.44812,-2.89624 2.91635,-6.33545 2.77554,-6.49634c-0.06033,-0.04028 -0.66369,0.26141 -1.36765,0.6637c-2.49395,1.4682 -8.14561,4.30407 -10.11665,5.0885c-2.47386,0.98547 -4.06275,1.32739 -8.44731,1.85034c-3.96219,0.48273 -5.32983,0.78442 -6.77795,1.52856c-1.44811,0.72406 -2.47385,1.52857 -3.8214,2.97669l-1.14642,1.22687l-0.02011,-0.76429c0,-1.40789 -0.62349,-3.84149 -1.44811,-5.67175c-1.89059,-4.24378 -4.52534,-7.14001 -9.61383,-10.55914l-1.28722,-0.88494l1.02575,-0.22126c2.27273,-0.52294 5.30972,-3.33869 6.69751,-6.21484c1.26709,-2.61463 2.25261,-7.0796 2.51407,-11.3435c0.14079,-2.0917 -0.04023,-5.4706 -0.28157,-5.4706c-0.06036,0 -0.56316,0.6637 -1.1263,1.44813c-1.68947,2.43359 -3.98232,5.22924 -5.14884,6.27507c-0.60339,0.54304 -2.37329,1.83027 -3.94207,2.85603c-2.97669,1.93079 -3.74097,2.69507 -4.52536,4.50525c-0.74416,1.68945 -0.84473,2.77552 -0.40226,4.08282c0.20115,0.62348 0.34192,1.14643 0.28159,1.14643c-0.3017,0 -5.81255,-3.62023 -7.76347,-5.10865c-1.54868,-1.1665 -4.58568,-3.84143 -4.68624,-4.1029c-0.04023,-0.08045 0.34191,-0.14081 0.82462,-0.14081c1.40787,0 2.45373,-0.86487 3.43925,-2.8158l0.80451,-1.609l0,-2.61463c0,-1.8504 -0.12069,-3.09734 -0.38214,-4.22369c-0.4626,-2.01123 -1.32744,-4.40465 -1.52855,-4.18335c-0.06035,0.08044 -0.36203,0.8849 -0.64362,1.78998c-0.8045,2.47382 -1.66934,4.14325 -3.05713,5.85278c-1.54866,1.93084 -1.74978,2.29284 -2.03137,3.66046l-0.22122,1.1062l-0.64362,-0.92517c-1.58889,-2.29285 -2.73532,-5.16895 -3.64038,-9.01045c-0.18101,-0.82463 -0.20112,-0.7442 -0.12068,0.70393c0.24135,4.12311 1.83025,7.72327 5.71199,12.9928c0.26146,0.362 0.22124,0.38207 -0.66373,0.38207c-0.66371,0 -1.60901,0.28163 -3.35879,1.02577c-1.91071,0.80456 -2.79565,1.0459 -4.16332,1.20678c-0.9654,0.10059 -2.37329,0.26148 -3.13757,0.34192l-1.36766,0.14075l1.40788,0.96545c3.23813,2.21241 6.61705,3.4795 9.19149,3.43921c2.8962,-0.04016 5.02813,-1.28718 5.2695,-3.07714c0.06033,-0.44251 0.18101,-0.82471 0.24134,-0.82471c0.08046,0 0.6436,0.4425 1.247,0.96545c1.50844,1.34754 6.11423,4.60578 9.83507,6.97907c4.30409,2.71521 4.16331,2.55432 2.41351,2.83587c-1.83025,0.32184 -3.11745,0.96546 -5.12871,2.59455c-3.8013,3.09735 -5.41031,3.86163 -12.93243,6.17456c-0.38215,0.12067 -0.60338,0.28161 -0.50281,0.36207c0.22122,0.22124 3.66049,1.4682 5.39016,1.971c3.53983,1.0459 8.20597,1.56878 11.00162,1.247c5.20917,-0.6034 9.01047,-3.60015 9.01047,-7.14l0,-1.20673l0.50281,0.60339c1.85037,2.19226 3.45938,5.24939 4.12309,7.84387c0.36201,1.3476 0.46259,2.59454 0.60338,7.54227c0.10056,3.25824 0.24135,6.19467 0.32181,6.5165l0.14078,0.58326l-0.70396,-0.52296c-0.38212,-0.30166 -1.18664,-0.76427 -1.81011,-1.02572c-3.31859,-1.46823 -5.79245,-1.48834 -10.67981,-0.04022c-5.93323,1.74979 -6.1947,1.79001 -10.80048,1.79001c-2.47386,0 -5.51086,-0.14077 -7.60258,-0.34192c-1.91069,-0.20111 -3.51972,-0.32178 -3.58005,-0.26145c-0.1609,0.1609 4.10298,4.10297 6.25502,5.79246c2.83589,2.23248 5.97345,4.20352 9.29205,5.81254c4.96781,2.4336 6.99918,2.93642 11.30329,2.75542c2.91633,-0.1207 4.48512,-0.44247 6.11424,-1.26709c2.19227,-1.08609 3.39903,-2.47385 3.96219,-4.56558l0.34192,-1.24698l0.56315,1.1062c2.53418,5.02817 4.84714,7.82383 10.0362,12.0676l1.56878,1.28717l-0.70395,0.6235c-0.38214,0.32181 -2.07159,1.76993 -3.74093,3.19791c-3.84153,3.27838 -4.08287,3.88175 -1.60901,3.78119c1.22687,-0.06037 7.03941,-1.44812 9.31213,-2.23252c0.66373,-0.24136 1.34757,-0.42236 1.52857,-0.42236c0.78439,0 4.10298,4.66614 5.22928,7.38132c1.76992,4.20355 2.17218,8.28642 1.28721,12.93242c-0.42236,2.29286 -1.18664,4.3443 -2.61464,7.1601c-1.34755,2.6951 -1.4079,2.99683 -0.64361,3.8214c1.34756,1.48836 6.23492,1.04586 8.00482,-0.72404c1.02576,-1.02576 1.1062,-1.58896 1.1062,-7.44166c-0.02011,-5.10863 -0.3017,-7.8037 -1.20676,-11.36364c-1.06596,-4.24376 -3.51971,-9.29206 -5.99356,-12.40948c-0.34192,-0.42238 -0.56314,-0.80451 -0.52292,-0.84473c0.04023,-0.04025 1.12632,-0.40228 2.39341,-0.82465c1.26709,-0.42236 2.41351,-0.8045 2.53418,-0.84472c0.12067,-0.04023 1.06597,0.58325 2.11184,1.36767c4.06275,3.13758 6.59693,5.49072 8.60819,8.02495c2.19229,2.77553 2.93646,4.08284 3.86163,6.77794c0.72406,2.0917 1.02576,3.8013 1.68945,9.71436c1.06598,9.55355 2.65488,16.00967 5.14884,20.9373c6.11426,12.06755 15.84875,21.0981 33.74899,31.3354c9.29205,5.3299 21.46018,9.091 34.11103,10.5793c6.6774,0.7643 13.03298,2.85603 18.70474,6.13435c9.27194,5.32985 16.02978,13.55591 23.63232,28.76111c6.37574,12.75141 9.15128,21.48029 14.38054,45.35401c1.52858,6.979 1.70958,7.42153 3.41914,8.26623c1.00566,0.4827 1.28723,0.52295 2.5141,0.42236c4.12308,-0.34191 11.00159,-4.00236 17.96056,-9.5736c0.74418,-0.58326 1.40788,-1.02576 1.48836,-0.9654c0.16088,0.18097 -0.70396,2.29284 -1.44812,3.45944c-1.30732,2.0715 -4.24378,3.9823 -6.51648,4.2638c-1.87049,0.2213 -0.82466,0.54306 1.72967,0.54306c2.03137,0 2.5744,-0.08046 3.82141,-0.52296c2.59452,-0.92516 4.24376,-2.49395 5.47061,-5.22924c0.66373,-1.44812 1.22687,-3.90186 1.22687,-5.30976l0,-0.94524l3.35883,-3.23816c1.83023,-1.79004 4.38455,-4.3645 5.65165,-5.7522c1.26708,-1.3878 2.3934,-2.5543 2.49395,-2.57446c0.28158,-0.12064 0.18103,3.39906 -0.16089,4.76672c-0.68384,2.75537 -2.43363,5.04824 -4.80692,6.23484c-1.20674,0.62356 -1.20674,0.62356 -0.5028,0.62356c0.94528,0 2.85598,-0.50281 4.12306,-1.08606c2.1923,-1.0056 4.1231,-3.4192 4.7466,-5.95337c0.36202,-1.46826 0.3218,-4.96777 -0.08045,-6.81818l-0.32181,-1.4682l2.65488,-3.05715c2.95654,-3.399 3.78116,-4.3845 5.43038,-6.51645c1.14643,-1.46825 1.14643,-1.48841 1.34757,-0.94532c0.40226,1.08607 0.46259,3.74097 0.10056,5.10867c-0.4827,1.8905 -1.00565,2.7755 -2.45373,4.1833c-0.70396,0.704 -1.18665,1.2671 -1.066,1.2671c0.4827,0 2.9767,-1.2671 3.92198,-2.0112c1.32742,-1.0258 2.17215,-2.2124 2.71522,-3.8415c0.62347,-1.83027 0.4827,-4.40473 -0.36204,-6.8986l-0.6235,-1.7699l0.96542,-1.44815c3.1778,-4.70642 5.77232,-10.01611 6.53659,-13.35485c0.36203,-1.6291 0.42236,-3.8013 0.10056,-4.92755c-0.26145,-0.92515 -1.20676,-2.05145 -2.17215,-2.53418c-0.40226,-0.20112 -2.0716,-0.66377 -3.74094,-1.02577c-16.73374,-3.58 -25.58328,-6.9992 -34.21161,-13.1939c-3.01688,-2.15204 -10.74013,-8.18585 -14.07883,-10.9413c-6.57684,-5.4505 -10.72003,-10.15684 -20.45456,-23.1295c-5.73208,-7.6428 -9.79484,-12.8922 -12.00724,-15.50684c-0.66368,-0.8045 -1.20674,-1.50842 -1.20674,-1.58886c0,-0.08045 0.88497,-0.2414 1.97104,-0.3822c5.77233,-0.74415 11.58486,-3.1979 18.54385,-7.864l2.31295,-1.54866l3.01688,-0.12067c9.21158,-0.36207 15.76832,-3.15772 17.92035,-7.64282c1.18665,-2.49395 1.1062,-4.86725 -0.26143,-7.84395c-0.40227,-0.8447 -0.7643,-1.52855 -0.80452,-1.4883c-0.04022,0.0402 0.02012,0.66367 0.12067,1.36765c0.82461,5.93325 -3.90185,10.37811 -13.03299,12.24859c-2.13193,0.42236 -2.83588,0.50281 -2.81576,0.24136c0,-0.08047 0.70394,-0.7241 1.54867,-1.428c5.18906,-4.26386 10.358,-9.8351 17.77957,-19.107l1.66934,-2.07162l2.61466,-0.66373c7.38132,-1.87045 12.02734,-5.02815 13.49556,-9.19147c0.4425,-1.26708 0.40227,-3.66048 -0.10057,-5.12872c-0.36203,-1.06596 -2.15203,-4.02252 -2.33307,-3.84149c-0.04022,0.04023 0.1207,0.60339 0.34192,1.26709c0.32182,0.96539 0.38214,1.52856 0.30169,2.85599c-0.24137,4.22365 -3.55993,7.74337 -9.5736,10.19711c-1.60901,0.64362 -1.99115,0.68384 -1.60901,0.14078c1.66934,-2.35318 5.2695,-7.68302 6.53659,-9.67417c0.86487,-1.38775 1.62912,-2.55432 1.70959,-2.61465c0.26146,-0.22122 3.01688,-4.94769 4.92758,-8.4473c1.34754,-2.49395 2.19228,-3.80127 2.51408,-3.96219c0.26147,-0.14077 1.7297,-0.84473 3.27837,-1.56878c5.87287,-2.75545 9.51328,-5.95335 11.00159,-9.65409c0.40224,-0.98553 0.48274,-1.56878 0.48274,-3.21801c0,-1.89057 -0.04026,-2.09168 -0.72407,-3.51972c-0.64363,-1.32739 -2.89623,-4.18341 -3.13758,-3.96216c-0.04022,0.04023 0.16089,0.54303 0.44248,1.08606c0.68384,1.4079 0.96539,2.8761 0.86484,4.68627c-0.181,3.27833 -2.6951,6.83827 -6.79807,9.6943c-1.64923,1.1464 -3.21802,2.03136 -3.33868,1.9107c-0.06037,-0.06037 0.56314,-1.52857 1.38775,-3.2784c3.19791,-6.79802 6.9791,-16.33147 9.31217,-23.47142l0.9855,-2.99678l2.81576,-1.87047c4.465,-2.97669 7.52213,-5.6919 9.8351,-8.74903c4.44488,-5.89294 4.72646,-11.64514 0.8045,-15.86883c-1.04587,-1.12627 -3.86164,-3.2381 -4.34434,-3.2381c-0.10056,0 0.22126,0.46253 0.74418,1.04578c1.72966,1.93085 2.71521,4.46508 2.71521,6.99925c0,2.9767 -1.04587,5.77235 -3.41915,9.0909c-1.64924,2.31292 -6.99922,7.502 -7.38136,7.13995c-0.06034,-0.08045 0.26146,-1.4682 0.72406,-3.09729c2.77554,-10.01611 5.53097,-24.15526 6.6774,-34.35242l0.26147,-2.2124l2.33307,-2.41344c8.76911,-9.09095 13.0531,-17.4176 12.6106,-24.5375c-0.22122,-3.8214 -2.09171,-6.7578 -5.47061,-8.64842c-1.28723,-0.724 -3.86163,-1.58888 -5.32987,-1.78998l-0.90506,-0.1408l1.20676,0.6637c1.87048,1.02574 4.12308,3.37895 4.98794,5.18907c0.9654,2.05153 1.22687,3.55993 1.08606,6.1947c-0.30166,5.24939 -3.25824,11.56476 -8.44729,18.10133c-0.64362,0.80456 -1.22687,1.4481 -1.26709,1.3878c-0.04022,-0.0402 0.10055,-2.33306 0.32182,-5.0885c0.6838,-8.749 0.86482,-13.57604 0.88493,-24.3966l0.02011,-10.51892l1.30732,-1.52856c6.59694,-7.70312 11.34354,-16.11022 13.33468,-23.61219c0.80451,-2.9566 1.02573,-4.68627 1.00562,-7.6026c-0.04022,-3.17779 -0.44248,-5.06843 -1.56879,-7.22045c-2.59451,-4.9477 -8.80932,-7.34113 -15.96942,-6.13434z"/>
    </g>
   </g>
  </g>
 </g>
</svg>