<svg width="510" height="510" xmlns="http://www.w3.org/2000/svg">

 <g>
  <title>background</title>
  <rect fill="#fffff9" id="canvas_background" height="512" width="512" y="-1" x="-1"/>
 </g>
 <g>
  <title>Layer 1</title>
  <g id="svg_1" transform="matrix(1,0,0,1,-943.8545532226562,-943.8544921875) ">
   <path fill="#d9667b" id="svg_2" d="m1273.6,1047.9l-147.2,0c-7.5,0 -13.6,6.1 -13.6,13.6l0,277c0,7.5 6.1,13.6 13.6,13.6l147.2,0c7.5,0 13.6,-6.1 13.6,-13.6l0,-277c0,-7.5 -6.1,-13.6 -13.6,-13.6zm-90.5,14.8l33.7,0c2.2,0 3.9,1.7 3.9,3.9c0,2.2 -1.7,3.9 -3.9,3.9l-33.7,0c-2.2,0 -3.9,-1.7 -3.9,-3.9c0,-2.2 1.8,-3.9 3.9,-3.9zm26.9,276.6c-3.7,3.7 -16.3,3.7 -20,0c-3.7,-3.7 -3.7,-16.3 0,-20c3.7,-3.7 16.3,-3.7 20,0c3.7,3.7 3.7,16.4 0,20zm66.5,-29.2l-152.9,0l0,-228.1l152.9,0l0,228.1z"/>
  </g>
  <g id="svg_3" transform="matrix(1,0,0,1,-943.8545532226562,-943.8544921875) ">
   <path id="svg_4" fill="#d9667b" d="m1445.3,1201.1c0,-135.5 -109.8,-245.3 -245.3,-245.3c-135.5,0 -245.3,109.8 -245.3,245.3c0,135.5 109.8,245.3 245.3,245.3c135.5,0 245.3,-109.8 245.3,-245.3zm-402.4,-128.3l285.4,285.4c-35,28.6 -79.6,45.7 -128.3,45.7c-112,0 -202.8,-90.8 -202.8,-202.8c0,-48.7 17.1,-93.3 45.7,-128.3zm359.9,128.3c0,48.9 -17.3,93.8 -46.2,128.9l-285.5,-285.5c35,-28.9 79.9,-46.2 128.9,-46.2c112,0 202.8,90.8 202.8,202.8z" class="st0"/>
  </g>
 </g>
</svg>