<svg width="510" height="510" xmlns="http://www.w3.org/2000/svg">

 <g>
  <title>background</title>
  <rect fill="none" id="canvas_background" height="512" width="512" y="-1" x="-1"/>
 </g>
 <g>
  <title>Layer 1</title>
  <rect fill-opacity="0" fill="#fffff9" height="510" width="510" y="0" x="0" id="ee-background"/>
  <g id="svg_1" transform="matrix(1,0,0,1,-1487.3744506835938,-1463.9972534179688) ">
   <path fill="#d9667b" id="svg_2" d="m1865.8,1678.7l-47.3,0c-8.3,0 -15,-6.7 -15,-15l0,-18.1c0,-3.5 -2.8,-6.3 -6.3,-6.3c-17.4,0 -31.6,-14.2 -31.6,-31.6c0,-17.4 14.2,-31.6 31.6,-31.6l0,-12.6c-24.4,0 -44.2,19.8 -44.2,44.2c0,22.2 16.5,40.7 37.9,43.7l0,12.3c0,15.2 12.4,27.6 27.6,27.6l47.3,0c8.3,0 15,6.7 15,15l0,24.4l12.6,0l0,-24.4c0,-15.3 -12.4,-27.6 -27.6,-27.6zm-290.2,100.6l296.3,0l0,-40.7l-296.3,0l0,40.7zm304.3,0l12.6,0l0,-40.7l-12.6,0l0,40.7zm20.5,0l12.6,0l0,-40.7l-12.6,0l0,40.7zm-36.5,-133.8l-18.7,0c3.3,-6.2 5,-13.2 5,-20.5c0,-11.8 -4.6,-22.9 -12.9,-31.2c-8.3,-8.3 -19.4,-12.9 -31.2,-12.9l0,12.6c8.4,0 16.4,3.3 22.3,9.2s9.2,13.9 9.2,22.3c0,8.4 -3.3,16.3 -9.2,22.3c-1.8,1.8 -2.3,4.5 -1.4,6.9c1,2.4 3.3,3.9 5.8,3.9l31.1,0c20.1,0 36.4,16.3 36.4,36.4l0,36.1l12.6,0l0,-36.1c0.1,-27 -21.9,-49 -49,-49z"/>
  </g>
  <g id="svg_3" transform="matrix(1,0,0,1,-1487.3744506835938,-1463.9972534179688) ">
   <path id="svg_4" fill="#d9667b" d="m1989,1721.2c0,-135.5 -109.8,-245.3 -245.3,-245.3c-135.5,0 -245.3,109.8 -245.3,245.3s109.8,245.3 245.3,245.3c135.5,-0.1 245.3,-109.9 245.3,-245.3zm-402.4,-128.3l285.4,285.4c-35,28.6 -79.6,45.7 -128.3,45.7c-112,0 -202.8,-90.8 -202.8,-202.8c0,-48.7 17.1,-93.4 45.7,-128.3zm360,128.3c0,48.9 -17.3,93.8 -46.2,128.9l-285.5,-285.5c35,-28.9 79.9,-46.2 128.9,-46.2c112,-0.1 202.8,90.7 202.8,202.8z" class="st0"/>
  </g>
 </g>
</svg>