<svg width="224" height="144" xmlns="http://www.w3.org/2000/svg">

 <g>
  <title>background</title>
  <rect fill="none" id="canvas_background" height="512" width="512" y="-1" x="-1"/>
 </g>
 <g>
  <title>Layer 1</title>
  <path fill="#d9667b" id="svg_1" d="m113,0c-25.8,0 -49,28.8 -68.6,63.6l-35.4,63.2l0,-4.8l-8,0l0,22l8,0l0,-4.4l41.2,-72l49.4,-30.6c9,-5.6 9.6,-6.6 13.4,-6.6s4.4,1.2 13.4,6.6l49.4,30.6l41.2,72l0,4.4l8,0l0,-22.2l-8,0l0,5l-35.6,-63.2c-19.4,-34.8 -42.6,-63.6 -68.4,-63.6zm-28.4,53.2l-28.8,17.6l-30.2,69.2l174.8,0l-30.2,-69.2l-28.6,-17.6l5.8,56.2c0.4,4.8 -3.4,8.8 -7.6,8.8l-53.2,0c-4.2,0 -8,-4 -7.6,-8.8l5.6,-56.2z"/>
 </g>
</svg>